#!OML:ASF E:\acrobat2\Project_11_07_03\Capture day 1\Session 1\Acrobat.ASF
:FULLY-SPECIFIED
:DEGREES
17
root 8.71557 18.1241 -0.312705 1.70253 -59.1396 2.31228
lowerback -4.36653 2.57248 0.580284
upperback -0.75836 3.43143 -2.27132
thorax 1.83923 1.71732 -2.45345
lowerneck -0.175699 4.45252 1.97536
upperneck 8.1462 5.85578 0.0606814
head 2.66827 2.95127 -0.175521
rclavicle 4.04713e-015 -9.14409e-015
rhumerus -36.9483 -20.9577 -78.4132
rradius 25.2393
rwrist -2.59515
rhand -10.5995 -43.4249
rfingers 7.12502
rthumb 15.4062 -72.8308
lclavicle 4.04713e-015 -9.14409e-015
lhumerus -28.9659 -18.6859 88.7998
lradius 29.7931
lwrist 9.73975
lhand 15.1762 -11.0202
lfingers 7.12502
lthumb 40.0175 14.2006
rfemur 8.87075 13.7379 16.1066
rtibia -2.92608
rfoot -25.8858 -24.2768
rtoes 17.7358
lfemur 1.31451 -3.35236 -9.95678
ltibia -1.92589
lfoot -11.0634 2.57103
ltoes 25.0589
18
root 8.72756 18.1169 -0.320359 1.80094 -59.7509 2.1968
lowerback -4.42303 2.68783 0.674179
upperback -0.640173 3.58292 -2.18669
thorax 1.99998 1.79574 -2.40308
lowerneck -0.622779 4.54562 2.30747
upperneck 8.12327 6.00421 -0.486319
head 2.77703 3.0194 -0.389611
rclavicle 4.08565e-014 -1.19271e-015
rhumerus -36.134 -18.3661 -80.0081
rradius 25.9136
rwrist -4.52834
rhand -9.38363 -42.1106
rfingers 7.12502
rthumb 16.5771 -71.4226
lclavicle 4.08565e-014 -1.19271e-015
lhumerus -29.0828 -18.8551 88.8957
lradius 29.9068
lwrist 10.4835
lhand 15.6947 -10.9704
lfingers 7.12502
lthumb 40.5052 14.1013
rfemur 8.66092 12.6927 15.7297
rtibia -3.05138
rfoot -24.0659 -23.5352
rtoes 13.5919
lfemur 1.54156 -3.80415 -9.89237
ltibia -2.1955
lfoot -11.5791 3.24029
ltoes 28.7737
19
root 8.74018 18.1108 -0.32333 1.85773 -60.1792 2.12157
lowerback -4.53872 2.78617 0.961956
upperback -0.582604 3.70315 -2.24468
thorax 2.15191 1.86003 -2.60803
lowerneck -0.532328 4.60061 2.79781
upperneck 7.93595 6.10505 -1.03807
head 2.73946 3.06798 -0.649586
rclavicle 9.26088e-014 -3.57812e-015
rhumerus -35.6708 -15.996 -81.5385
rradius 26.6727
rwrist -4.61645
rhand -8.63522 -40.8728
rfingers 7.12502
rthumb 17.2975 -70.1231
lclavicle 9.26088e-014 -3.57812e-015
lhumerus -29.3911 -18.6227 88.7947
lradius 29.7233
lwrist 11.0588
lhand 14.6756 -11.8148
lfingers 7.12502
lthumb 39.5462 13.5466
rfemur 8.38523 11.8661 15.4344
rtibia -2.91131
rfoot -22.8472 -22.8567
rtoes 10.5496
lfemur 1.68385 -4.21025 -9.94933
ltibia -2.38518
lfoot -11.5825 3.92977
ltoes 31.1442
20
root 8.75118 18.1086 -0.320965 2.05973 -60.3641 1.80978
lowerback -4.63626 2.80996 1.47947
upperback -0.520399 3.71281 -2.33767
thorax 2.31034 1.87245 -2.98593
lowerneck -0.356702 4.7022 3.02539
upperneck 7.89683 6.24485 -1.13652
head 2.71036 3.14139 -0.72012
rclavicle -3.639e-014 -7.95139e-016
rhumerus -35.3399 -14.7001 -82.6836
rradius 27.224
rwrist -2.36778
rhand -8.40084 -39.6872
rfingers 7.12502
rthumb 17.5231 -68.9174
lclavicle -3.639e-014 -7.95139e-016
lhumerus -29.694 -18.0575 88.5676
lradius 29.144
lwrist 11.8581
lhand 11.784 -13.2771
lfingers 7.12502
lthumb 36.8164 12.8346
rfemur 8.21386 11.4193 15.4634
rtibia -2.66043
rfoot -22.3046 -22.4412
rtoes 9.16543
lfemur 1.81876 -4.75769 -9.96459
ltibia -2.50476
lfoot -11.3953 4.97535
ltoes 31.3561
21
root 8.75877 18.1074 -0.318396 2.14741 -60.4765 1.53793
lowerback -4.60716 2.78568 1.8603
upperback -0.469588 3.66367 -2.36756
thorax 2.36924 1.85362 -3.2337
lowerneck -0.24666 4.82845 2.86238
upperneck 8.06625 6.39527 -0.797117
head 2.73024 3.22084 -0.58077
rclavicle 2.97991e-014 3.02153e-014
rhumerus -35.2758 -13.2034 -83.7283
rradius 28.0042
rwrist 0.410008
rhand -8.63059 -38.6406
rfingers 7.12502
rthumb 17.302 -67.8905
lclavicle 2.97991e-014 3.02153e-014
lhumerus -29.9453 -17.1201 88.3082
lradius 28.2467
lwrist 12.7065
lhand 8.21126 -14.7674
lfingers 7.12502
lthumb 33.4279 12.1415
rfemur 8.18722 11.1029 15.5354
rtibia -2.43407
rfoot -22.1327 -22.0208
rtoes 9.43302
lfemur 2.01778 -5.01621 -9.92299
ltibia -2.60653
lfoot -11.0658 5.7652
ltoes 31.6907
22
root 8.76002 18.1093 -0.324383 2.3702 -60.4449 1.16454
lowerback -4.61043 2.68614 2.06565
upperback -0.48769 3.51893 -2.28415
thorax 2.34907 1.78279 -3.27371
lowerneck -0.0176996 4.94064 2.56376
upperneck 8.30794 6.52955 -0.437026
head 2.74551 3.28855 -0.415207
rclavicle -2.51835e-014 1.51076e-014
rhumerus -35.6105 -11.1264 -84.7374
rradius 29.147
rwrist 2.74789
rhand -9.07487 -38.1501
rfingers 7.12502
rthumb 16.8744 -67.437
lclavicle -2.51835e-014 1.51076e-014
lhumerus -30.2284 -15.6106 87.9598
lradius 27.1164
lwrist 13.0586
lhand 4.77075 -15.9085
lfingers 7.12502
lthumb 30.1513 11.6513
rfemur 8.164 11.2872 15.8724
rtibia -2.16835
rfoot -22.4375 -22.0753
rtoes 10.329
lfemur 2.07769 -4.83547 -9.65002
ltibia -2.62569
lfoot -10.6028 5.93109
ltoes 32.8509
23
root 8.75817 18.1124 -0.334432 2.76103 -60.3366 0.563567
lowerback -4.56207 2.52276 2.24256
upperback -0.545084 3.28853 -2.08598
thorax 2.24389 1.66666 -3.18872
lowerneck 0.323753 5.05519 2.36982
upperneck 8.51835 6.68681 -0.378556
head 2.74642 3.36167 -0.366313
rclavicle 7.20004e-014 -3.97569e-016
rhumerus -36.1071 -8.81638 -85.6749
rradius 30.3358
rwrist 4.35347
rhand -9.53196 -38.1954
rfingers 7.12502
rthumb 16.4343 -67.5193
lclavicle 7.20004e-014 -3.97569e-016
lhumerus -30.5392 -13.3063 87.4313
lradius 25.8503
lwrist 12.599
lhand 0.907799 -16.873
lfingers 7.12502
lthumb 26.4596 11.2999
rfemur 8.24584 12.0197 16.5608
rtibia -1.93124
rfoot -22.9309 -22.749
rtoes 10.4323
lfemur 2.21915 -5.11334 -9.27599
ltibia -2.74023
lfoot -10.6471 6.17561
ltoes 33.8888
24
root 8.75958 18.1102 -0.340289 2.67302 -60.3168 0.365882
lowerback -4.25824 2.40487 2.249
upperback -0.595047 3.13296 -1.95156
thorax 2.00358 1.58494 -3.07863
lowerneck 0.468364 5.10445 2.19662
upperneck 8.82871 6.75038 -0.31026
head 2.81591 3.38867 -0.313391
rclavicle 9.87672e-014 8.34896e-015
rhumerus -36.5629 -6.77507 -86.4542
rradius 31.336
rwrist 4.98692
rhand -9.48702 -38.0155
rfingers 7.12502
rthumb 16.4776 -67.3358
lclavicle 9.87672e-014 8.34896e-015
lhumerus -30.7285 -10.2934 86.5755
lradius 24.6138
lwrist 11.4573
lhand -2.74898 -17.3306
lfingers 7.12502
lthumb 22.9549 11.3228
rfemur 8.52164 12.5072 16.9223
rtibia -1.83167
rfoot -23.223 -23.0638
rtoes 10.9594
lfemur 2.62078 -5.63321 -9.227
ltibia -2.99163
lfoot -10.9836 6.54442
ltoes 34.4568
25
root 8.75763 18.1088 -0.347115 1.84546 -60.2819 1.146
lowerback -4.07051 2.33714 1.82558
upperback -0.636885 3.06463 -2.06878
thorax 1.83484 1.54501 -2.97525
lowerneck 0.381158 4.99589 2.32386
upperneck 9.13931 6.60041 -0.348238
head 2.9419 3.31614 -0.343436
rclavicle 6.46943e-014 2.46493e-014
rhumerus -36.9563 -5.44856 -87.0681
rradius 32.1247
rwrist 4.80399
rhand -8.3052 -37.223
rfingers 7.12502
rthumb 17.6152 -66.445
lclavicle 6.46943e-014 2.46493e-014
lhumerus -30.8945 -7.9815 85.6216
lradius 23.6775
lwrist 10.8103
lhand -5.52538 -16.914
lfingers 7.12502
lthumb 20.2886 12.0463
rfemur 8.78746 12.749 16.57
rtibia -1.98769
rfoot -23.2617 -23.1991
rtoes 11.7396
lfemur 2.90595 -5.87904 -9.74987
ltibia -3.23422
lfoot -11.0797 6.80846
ltoes 34.4039
